<svg width="1059" height="867" viewBox="0 0 1059 867" fill="none" xmlns="http://www.w3.org/2000/svg">
<g id="No Results">
<g id="circle">
<path id="Stroke 1" d="M33.1992 397.381V406.381" stroke="#D2D8DF" stroke-width="2.921" stroke-linecap="round"/>
<g id="Group 8">
<path id="Stroke 2" d="M12.9844 402.256L20.3387 409.827" stroke="#D2D8DF" stroke-width="2.921" stroke-linecap="round"/>
<path id="Stroke 4" d="M4.38281 422.409H14.7817" stroke="#D2D8DF" stroke-width="2.921" stroke-linecap="round"/>
<path id="Stroke 6" d="M12.1406 442.921L19.4949 435.35" stroke="#D2D8DF" stroke-width="2.921" stroke-linecap="round"/>
</g>
<path id="Stroke 9" d="M33.1992 445.381V436.381" stroke="#D2D8DF" stroke-width="2.921" stroke-linecap="round"/>
<path id="Stroke 10" d="M48.1992 439.381L42.1992 433.381" stroke="#D2D8DF" stroke-width="2.921" stroke-linecap="round"/>
<path id="Stroke 11" d="M60.1992 424.381H51.1992" stroke="#D2D8DF" stroke-width="2.921" stroke-linecap="round"/>
<path id="Stroke 12" d="M54.1992 403.381L48.1992 409.381" stroke="#D2D8DF" stroke-width="2.921" stroke-linecap="round"/>
<path id="Stroke 13" d="M516.199 4.38148V10.3815" stroke="#D2D8DF" stroke-width="2.921" stroke-linecap="round"/>
<path id="Stroke 15" d="M498.199 22.3815H504.199" stroke="#D2D8DF" stroke-width="2.921" stroke-linecap="round"/>
<path id="Stroke 16" d="M516.199 40.3815V34.3815" stroke="#D2D8DF" stroke-width="2.921" stroke-linecap="round"/>
<path id="Stroke 17" d="M531.199 22.3815H525.199" stroke="#D2D8DF" stroke-width="2.921" stroke-linecap="round"/>
<path id="Stroke 18" d="M168.199 256.381V265.381" stroke="#D2D8DF" stroke-width="2.921" stroke-linecap="round"/>
<path id="Stroke 19" d="M141.199 283.381H150.199" stroke="#D2D8DF" stroke-width="2.921" stroke-linecap="round"/>
<path id="Stroke 20" d="M168.199 307.381V298.381" stroke="#D2D8DF" stroke-width="2.921" stroke-linecap="round"/>
<path id="Stroke 21" d="M192.199 283.381H183.199" stroke="#D2D8DF" stroke-width="2.921" stroke-linecap="round"/>
<g id="Group 42">
<path id="Stroke 22" d="M813.961 583.499C821.13 583.499 826.944 589.315 826.944 596.486C826.944 603.66 821.13 609.474 813.961 609.474C806.791 609.474 800.977 603.66 800.977 596.486" stroke="#D2D8DF" stroke-width="2.921" stroke-linecap="round"/>
<path id="Fill 26" fill-rule="evenodd" clip-rule="evenodd" d="M873.381 465.672C881.09 463.267 892.908 453.839 895.643 443.694C898.124 452.662 908.523 463.267 917.905 464.07C907.343 467.809 897.245 478.919 895.643 487.647C894.553 478.751 880.586 466.969 873.381 465.672Z" fill="#EBECEE"/>
<path id="Fill 28" fill-rule="evenodd" clip-rule="evenodd" d="M82.0137 579.498C85.8696 578.296 91.7758 573.583 93.1435 568.511C94.3838 572.992 99.582 578.296 104.273 578.698C98.9937 580.566 93.9458 586.122 93.1435 590.486C92.5985 586.038 85.615 580.145 82.0137 579.498Z" fill="#EBECEE"/>
<path id="Fill 30" fill-rule="evenodd" clip-rule="evenodd" d="M153.571 162.173C153.571 167.737 149.063 172.243 143.503 172.243C137.941 172.243 133.436 167.737 133.436 162.173C133.436 156.612 137.941 152.103 143.503 152.103C149.063 152.103 153.571 156.612 153.571 162.173Z" fill="#D1D8DF"/>
<path id="Fill 32" fill-rule="evenodd" clip-rule="evenodd" d="M825.856 189.213C825.856 198.509 818.32 206.045 809.029 206.045C799.733 206.045 792.199 198.509 792.199 189.213C792.199 179.917 799.733 172.382 809.029 172.382C818.32 172.382 825.856 179.917 825.856 189.213Z" fill="#EBECEE"/>
<path id="Fill 34" fill-rule="evenodd" clip-rule="evenodd" d="M1058.94 143.61C1058.94 150.986 1052.96 156.962 1045.59 156.962C1038.22 156.962 1032.25 150.986 1032.25 143.61C1032.25 136.235 1038.22 130.259 1045.59 130.259C1052.96 130.259 1058.94 136.235 1058.94 143.61Z" fill="#EBECEE"/>
<path id="Stroke 36" fill-rule="evenodd" clip-rule="evenodd" d="M341.73 767.185C341.73 771.834 337.963 775.602 333.315 775.602C328.669 775.602 324.902 771.834 324.902 767.185C324.902 762.535 328.669 758.768 333.315 758.768C337.963 758.768 341.73 762.535 341.73 767.185Z" stroke="#D2D8DF" stroke-width="2.921" stroke-linecap="round"/>
<path id="Stroke 38" fill-rule="evenodd" clip-rule="evenodd" d="M336.723 97.4767C336.723 103.041 332.216 107.547 326.656 107.547C321.096 107.547 316.588 103.041 316.588 97.4767C316.588 91.9154 321.096 87.4063 326.656 87.4063C332.216 87.4063 336.723 91.9154 336.723 97.4767Z" stroke="#D2D8DF" stroke-width="2.921" stroke-linecap="round"/>
<path id="Stroke 40" fill-rule="evenodd" clip-rule="evenodd" d="M593.532 860.39C587.098 862.838 579.898 859.606 577.451 853.173C575.003 846.738 578.233 839.534 584.669 837.088C591.1 834.64 598.3 837.87 600.747 844.305C603.197 850.74 599.965 857.942 593.532 860.39Z" stroke="#D2D8DF" stroke-width="2.921" stroke-linecap="round"/>
</g>
</g>
<g id="search">
<g id="documents">
<path id="Fill 1" fill-rule="evenodd" clip-rule="evenodd" d="M589.697 622.381H343.683C326.367 622.381 312.193 608.166 312.193 590.792V239.964C312.193 222.59 326.367 208.381 343.683 208.381H589.697C607.02 208.381 621.193 222.59 621.193 239.964V590.792C621.193 608.166 607.02 622.381 589.697 622.381Z" fill="#E0E2EE"/>
<path id="Fill 3" fill-rule="evenodd" clip-rule="evenodd" d="M568.697 637.381H322.683C305.367 637.381 291.193 623.166 291.193 605.792V254.964C291.193 237.59 305.367 223.381 322.683 223.381H568.697C586.02 223.381 600.193 237.59 600.193 254.964V605.792C600.193 623.166 586.02 637.381 568.697 637.381Z" fill="#E8EBF2"/>
<path id="Fill 5" fill-rule="evenodd" clip-rule="evenodd" d="M548.27 649.223H301.748C284.396 649.223 270.193 635.066 270.193 617.764V268.389C270.193 251.087 284.396 236.937 301.748 236.937H548.27C565.629 236.937 579.832 251.087 579.832 268.389V617.764C579.832 635.066 565.629 649.223 548.27 649.223Z" fill="#D8DBEA"/>
<path id="Fill 8" fill-rule="evenodd" clip-rule="evenodd" d="M548.27 649.223H301.748C284.396 649.223 270.193 635.066 270.193 617.764V268.389C270.193 251.087 284.396 236.937 301.748 236.937H548.27C565.629 236.937 579.832 251.087 579.832 268.389V617.764C579.832 635.066 565.629 649.223 548.27 649.223Z" fill="#F1F2F7"/>
<path id="Fill 11" fill-rule="evenodd" clip-rule="evenodd" d="M512.737 343.381H330.65C325.45 343.381 321.193 339.332 321.193 334.385C321.193 329.431 325.45 325.381 330.65 325.381H512.737C517.937 325.381 522.193 329.431 522.193 334.385C522.193 339.332 517.937 343.381 512.737 343.381Z" fill="#E0E2EE"/>
<path id="Fill 13" fill-rule="evenodd" clip-rule="evenodd" d="M512.737 397.381H330.65C325.45 397.381 321.193 393.332 321.193 388.385C321.193 383.431 325.45 379.381 330.65 379.381H512.737C517.937 379.381 522.193 383.431 522.193 388.385C522.193 393.332 517.937 397.381 512.737 397.381Z" fill="#E0E2EE"/>
<path id="Fill 15" fill-rule="evenodd" clip-rule="evenodd" d="M512.737 451.381H330.65C325.45 451.381 321.193 447.332 321.193 442.385C321.193 437.438 325.45 433.381 330.65 433.381H512.737C517.937 433.381 522.193 437.438 522.193 442.385C522.193 447.332 517.937 451.381 512.737 451.381Z" fill="#E0E2EE"/>
<path id="Fill 17" fill-rule="evenodd" clip-rule="evenodd" d="M512.737 505.381H330.65C325.45 505.381 321.193 501.332 321.193 496.385C321.193 491.431 325.45 487.381 330.65 487.381H512.737C517.937 487.381 522.193 491.431 522.193 496.385C522.193 501.332 517.937 505.381 512.737 505.381Z" fill="#E0E2EE"/>
<path id="Fill 19" fill-rule="evenodd" clip-rule="evenodd" d="M425.696 559.381H330.69C325.468 559.381 321.193 555.332 321.193 550.385C321.193 545.431 325.468 541.381 330.69 541.381H425.696C430.919 541.381 435.193 545.431 435.193 550.385C435.193 555.332 430.919 559.381 425.696 559.381Z" fill="#E0E2EE"/>
</g>
<g id="search_2">
<path id="Fill 21" fill-rule="evenodd" clip-rule="evenodd" d="M617.458 489.592C581.048 525.996 524.681 530.102 483.759 501.996C478.529 498.34 473.551 494.233 468.909 489.592C466.519 487.21 464.267 484.752 462.145 482.164C457.9 476.997 454.182 471.485 451.135 465.791C445.768 456.173 442.119 445.967 440.126 435.417C433.698 402.334 443.31 366.724 468.909 341.137C494.569 315.473 530.185 305.923 563.274 312.29C573.818 314.343 584.033 317.992 593.653 323.297C599.356 326.412 604.792 330.129 609.969 334.373C612.549 336.488 615.007 338.747 617.39 341.137C622.039 345.778 626.208 350.747 629.796 355.984C657.915 396.891 653.8 453.257 617.458 489.592Z" fill="white" fill-opacity="0.1"/>
<path id="Fill 23" fill-rule="evenodd" clip-rule="evenodd" d="M607.27 482.422C569.39 520.309 508.003 520.302 470.116 482.422C432.279 444.584 432.279 383.19 470.165 345.31C508.003 307.473 569.39 307.473 607.228 345.31C645.107 383.19 645.107 444.584 607.27 482.422ZM626.71 325.848C578.088 277.226 499.298 277.226 450.676 325.848C402.061 374.463 402.018 453.303 450.633 501.925C494.885 546.163 564.245 550.152 613.029 513.83C617.794 510.278 622.382 506.295 626.76 501.925C631.13 497.548 635.112 492.959 638.658 488.194C674.98 439.403 670.955 370.093 626.71 325.848Z" fill="#E0E2EE"/>
<path id="Fill 25" fill-rule="evenodd" clip-rule="evenodd" d="M818.06 685.206L816.018 687.248C802.514 700.759 780.399 700.759 766.888 687.248L642.193 562.553L693.365 511.381L818.06 636.076C831.571 649.587 831.571 671.695 818.06 685.206Z" fill="url(#paint0_linear_86_9556)"/>
<path id="Fill 27" fill-rule="evenodd" clip-rule="evenodd" d="M641.346 484.381L678.193 521.229L652.034 547.381L615.193 510.534C620.056 506.909 624.731 502.845 629.205 498.385C633.664 493.926 637.728 489.244 641.346 484.381Z" fill="#E0E2EE"/>
<path id="Fill 29" fill-rule="evenodd" clip-rule="evenodd" d="M816.193 634.542L765.347 685.381L756.193 676.221L807.033 625.381L816.193 634.542Z" fill="#EF545F"/>
<path id="Fill 31" fill-rule="evenodd" clip-rule="evenodd" d="M696.193 513.142L643.955 565.381L636.193 557.621L688.432 505.381L696.193 513.142Z" fill="url(#paint1_linear_86_9556)"/>
<path id="Fill 33" fill-rule="evenodd" clip-rule="evenodd" d="M582.193 332.277L454.083 460.381C449.258 451.735 445.978 442.559 444.193 433.075L554.886 322.381C564.363 324.234 573.546 327.508 582.193 332.277Z" fill="white" fill-opacity="0.5"/>
<path id="Fill 35" fill-rule="evenodd" clip-rule="evenodd" d="M624.193 362.727L485.692 493.381C480.732 490.116 476.011 486.441 471.609 482.288C469.342 480.15 467.199 477.957 465.193 475.642L605.382 343.381C607.836 345.28 610.168 347.302 612.427 349.441C616.829 353.594 620.79 358.041 624.193 362.727Z" fill="white" fill-opacity="0.5"/>
</g>
</g>
</g>
<defs>
<linearGradient id="paint0_linear_86_9556" x1="735.193" y1="418.381" x2="549.193" y2="604.381" gradientUnits="userSpaceOnUse">
<stop stop-color="#FF8960"/>
<stop offset="1" stop-color="#FF62A5"/>
</linearGradient>
<linearGradient id="paint1_linear_86_9556" x1="666.193" y1="475.381" x2="606.193" y2="535.381" gradientUnits="userSpaceOnUse">
<stop stop-color="#FF404E"/>
<stop offset="1" stop-color="#FF62A5"/>
</linearGradient>
</defs>
</svg>
